# xmcd CD database file
#
# Track frame offsets:
#	150
#	43021
#	73909
#	102260
#	137679
#	181452
#	191236
#
# Disc length: 2861 seconds
#
# Revision: 2
# Processed by: cddbd v1.5.2PL0 Copyright (c) Steve Scherf et al.
# Submitted via: CDex 1.70beta2
#
DISCID=690b2b07
DTITLE=JERRY GONZALEZ - MUSIC FOR BIG BAND
DYEAR=2006
DGENRE=Jazz
TTITLE0=FALL 
TTITLE1=EL VITO EN EL CONGO
TTITLE2=GOODBYE PORKPIE HAT
TTITLE3=NIGHTFALL
TTITLE4=GRANA 
TTITLE5=DUENDE Y ACHE
TTITLE6=RUMBA PA KENNY
EXTD=YEAR: 2006
EXTT0=
EXTT1=
EXTT2=
EXTT3=
EXTT4=
EXTT5=
EXTT6=
PLAYORDER=
